<?xml version="1.0" encoding="UTF-8"?>
<svg width="335px" height="335px" viewBox="0 0 335 335" version="1.1" xmlns="http://www.w3.org/2000/svg" xmlns:xlink="http://www.w3.org/1999/xlink">
    <!-- Generator: Sketch 57.1 (83088) - https://sketch.com -->
    <title>Untitled</title>
    <desc>Created with Sketch.</desc>
    <g id="Page-1" stroke="none" stroke-width="1" fill="none" fill-rule="evenodd">
        <g id="sniper" fill="#FFFFFF" fill-rule="nonzero">
            <circle id="Oval" cx="167.156" cy="167.155" r="13.921"></circle>
            <path d="M110.483,135.793 C113.98,139.284 118.562,141.032 123.139,141.032 C127.716,141.032 132.298,139.284 135.795,135.787 C142.788,128.8 142.788,117.463 135.795,110.47 L30.556,5.244 C23.563,-1.743 12.238,-1.743 5.245,5.244 C-1.748,12.231 -1.748,23.568 5.245,30.561 L110.483,135.793 Z" id="Path"></path>
            <path d="M211.173,141.038 C215.756,141.038 220.332,139.29 223.829,135.799 L329.067,30.561 C336.06,23.568 336.06,12.237 329.067,5.244 C322.074,-1.749 310.749,-1.743 303.756,5.244 L198.518,110.475 C191.525,117.468 191.525,128.799 198.518,135.792 C202.014,139.289 206.591,141.038 211.173,141.038 Z" id="Path"></path>
            <path d="M303.755,329.066 C307.252,332.557 311.834,334.305 316.411,334.305 C320.988,334.305 325.57,332.557 329.067,329.06 C336.06,322.073 336.06,310.736 329.067,303.743 L223.829,198.517 C216.836,191.53 205.511,191.53 198.518,198.517 C191.525,205.504 191.525,216.841 198.518,223.834 L303.755,329.066 Z" id="Path"></path>
            <path d="M17.901,334.311 C22.484,334.311 27.06,332.563 30.557,329.072 L135.794,223.84 C142.787,216.847 142.787,205.516 135.794,198.523 C128.801,191.53 117.476,191.536 110.483,198.523 L5.245,303.748 C-1.748,310.741 -1.748,322.072 5.245,329.065 C8.741,332.562 13.324,334.311 17.901,334.311 Z" id="Path"></path>
        </g>
    </g>
</svg>